<svg width="280" height="76" viewBox="0 0 280 76" fill="none" xmlns="http://www.w3.org/2000/svg">
<path d="M85.4826 22.3185L85.3086 22H81.8378L64.3764 53.9955L68.5001 53.9895L74.1101 43.8041H93.0363L98.6463 53.9895L102.77 53.9955L85.4826 22.3185ZM91.4276 40.8939H75.7209L83.5753 26.411L91.4276 40.8939Z" fill="#AD1E1F"/>
<path d="M55.9486 22.0044H51.6616L38.3025 49.1829L24.9433 22.0044H20.6585L16 53.9959H19.6856L23.5666 27.2116L36.6745 53.9999L38.3025 53.9959L39.9326 53.9999L53.0383 27.2116L56.9215 53.9959H60.6049L55.9486 22.0044Z" fill="#AD1E1F"/>
<path d="M138.578 22.1632L138.488 22H135.017L117.553 53.9955L121.677 53.9895L127.287 43.8041H146.213L151.823 53.9895L155.947 53.9955L138.578 22.1632ZM144.607 40.8939H128.9L136.754 26.411L144.607 40.8939Z" fill="#AD1E1F"/>
<path d="M96.2451 22.0039V24.914H108.421V53.9954H111.889V24.914H124.065V22.0039H96.2451Z" fill="#AD1E1F"/>
<path d="M163.189 51.0853V22.0039H159.72V53.9954H184.353V51.0853H163.189Z" fill="#AD1E1F"/>
<path d="M260.487 22.004V49.3258L234.237 22L230.29 22.006V53.9955H233.758V26.6717L259.892 53.89L259.987 53.9895L263.958 53.9955V22.004H260.487Z" fill="#AD1E1F"/>
<path d="M209.145 22.1632L209.055 22H205.584L188.12 53.9955L192.244 53.9895L197.854 43.8041H216.78L222.39 53.9895L226.514 53.9955L209.145 22.1632ZM215.174 40.8939H199.467L207.321 26.411L215.174 40.8939Z" fill="#AD1E1F"/>
</svg>
